<svg width="25" height="25" viewBox="0 0 25 25" fill="none" xmlns="http://www.w3.org/2000/svg">
<path opacity="0.2" d="M12.0984 21.0979C17.0689 21.0979 21.0984 17.0685 21.0984 12.0979C21.0984 7.12734 17.0689 3.0979 12.0984 3.0979C7.1278 3.0979 3.09836 7.12734 3.09836 12.0979C3.09836 17.0685 7.1278 21.0979 12.0984 21.0979Z" fill="#0F3825"/>
<path d="M12.0979 15.8479C14.1689 15.8479 15.8479 14.169 15.8479 12.0979C15.8479 10.0268 14.1689 8.3479 12.0979 8.3479C10.0268 8.3479 8.34787 10.0268 8.34787 12.0979C8.34787 14.169 10.0268 15.8479 12.0979 15.8479Z" stroke="#0F3825" stroke-width="1.5" stroke-linecap="round" stroke-linejoin="round"/>
<path d="M17.0742 19.5981C15.4034 20.707 13.41 21.2262 11.4105 21.0732C9.411 20.9202 7.51984 20.1039 6.03709 18.7537C4.55435 17.4036 3.56496 15.5969 3.22591 13.6204C2.88687 11.6439 3.21759 9.6108 4.1656 7.84367C5.1136 6.07654 6.6246 4.6766 8.45883 3.866C10.2931 3.0554 12.3455 2.88055 14.2904 3.36921C16.2353 3.85787 17.9613 4.98204 19.1946 6.56335C20.4278 8.14466 21.0977 10.0925 21.0979 12.0979C21.0979 14.169 20.3479 15.8479 18.4729 15.8479C16.5979 15.8479 15.8479 14.169 15.8479 12.0979V8.3479" stroke="#0F3825" stroke-width="1.5" stroke-linecap="round" stroke-linejoin="round"/>
</svg>
