<svg width="25" height="25" viewBox="0 0 25 25" fill="none" xmlns="http://www.w3.org/2000/svg">
<path d="M8.76567 11.8272C9.5567 13.4113 10.8565 14.684 12.4568 15.4416C12.5739 15.4959 12.7031 15.5188 12.8317 15.508C12.9603 15.4972 13.0839 15.4531 13.1903 15.38L15.5244 13.7956C15.6276 13.7256 15.7467 13.6824 15.8708 13.6699C15.995 13.6575 16.1203 13.6762 16.2354 13.7244L20.6417 15.5701C20.7913 15.6322 20.9168 15.7413 20.9991 15.8809C21.0814 16.0205 21.116 16.1831 21.0979 16.3442C20.9681 17.4313 20.4464 18.4338 19.6306 19.164C18.8149 19.8942 17.7609 20.302 16.6661 20.311C13.2847 20.3389 10.0308 19.0223 7.62007 16.651C5.20938 14.2797 3.83943 11.0478 3.8116 7.66642C3.80265 6.57162 4.19305 5.5111 4.90972 4.68342C5.62639 3.85574 6.62018 3.31766 7.705 3.16994C7.86573 3.14915 8.02885 3.18115 8.16981 3.26113C8.31076 3.3411 8.4219 3.46472 8.48649 3.61336L10.4061 7.99251C10.4557 8.10578 10.4766 8.22957 10.4668 8.35286C10.4571 8.47615 10.417 8.5951 10.3501 8.69914L8.8101 11.095C8.74 11.2028 8.69905 11.3269 8.69127 11.4552C8.68348 11.5836 8.70911 11.7117 8.76567 11.8272V11.8272Z" stroke="#0F3825" stroke-width="1.5" stroke-linecap="round" stroke-linejoin="round"/>
</svg>
