<svg width="25" height="25" viewBox="0 0 25 25" fill="none" xmlns="http://www.w3.org/2000/svg">
<path d="M12.0984 21.0984C17.0689 21.0984 21.0984 17.0689 21.0984 12.0984C21.0984 7.1278 17.0689 3.09836 12.0984 3.09836C7.1278 3.09836 3.09836 7.1278 3.09836 12.0984C3.09836 17.0689 7.1278 21.0984 12.0984 21.0984Z" stroke="#0F3825" stroke-width="1.5" stroke-miterlimit="10"/>
<path d="M3.61087 9.09836H20.5857" stroke="#0F3825" stroke-width="1.5" stroke-linecap="round" stroke-linejoin="round"/>
<path d="M3.61122 15.0984H20.586" stroke="#0F3825" stroke-width="1.5" stroke-linecap="round" stroke-linejoin="round"/>
<path d="M12.0984 20.8568C14.1694 20.8568 15.8484 16.9355 15.8484 12.0984C15.8484 7.26122 14.1694 3.33995 12.0984 3.33995C10.0273 3.33995 8.34836 7.26122 8.34836 12.0984C8.34836 16.9355 10.0273 20.8568 12.0984 20.8568Z" stroke="#0F3825" stroke-width="1.5" stroke-miterlimit="10"/>
</svg>
